<mxfile host="app.diagrams.net" modified="2024-01-23T08:28:37.909Z" agent="Mozilla/5.0 (Windows NT 10.0; Win64; x64) AppleWebKit/537.36 (KHTML, like Gecko) Chrome/120.0.0.0 Safari/537.36 OPR/106.0.0.0" etag="LA1zPUXpalCi3yhqY4k3" version="22.1.21" type="device">
  <diagram name="Página-1" id="vHfaZ6Guj1JaPEUL6cC1">
    <mxGraphModel dx="870" dy="550" grid="1" gridSize="10" guides="1" tooltips="1" connect="1" arrows="1" fold="1" page="1" pageScale="1" pageWidth="827" pageHeight="1169" math="0" shadow="0">
      <root>
        <mxCell id="0" />
        <mxCell id="1" parent="0" />
        <mxCell id="kwlAMlTlPHPSavqxf0X7-33" style="edgeStyle=orthogonalEdgeStyle;rounded=0;orthogonalLoop=1;jettySize=auto;html=1;entryX=0;entryY=0.5;entryDx=0;entryDy=0;endArrow=none;endFill=0;startArrow=classic;startFill=1;" parent="1" source="kwlAMlTlPHPSavqxf0X7-5" target="kwlAMlTlPHPSavqxf0X7-32" edge="1">
          <mxGeometry relative="1" as="geometry">
            <Array as="points">
              <mxPoint x="260" y="440" />
            </Array>
          </mxGeometry>
        </mxCell>
        <mxCell id="kwlAMlTlPHPSavqxf0X7-5" value="Usuario" style="whiteSpace=wrap;html=1;align=center;" parent="1" vertex="1">
          <mxGeometry x="190" y="280" width="100" height="40" as="geometry" />
        </mxCell>
        <mxCell id="kwlAMlTlPHPSavqxf0X7-18" style="edgeStyle=orthogonalEdgeStyle;rounded=0;orthogonalLoop=1;jettySize=auto;html=1;endArrow=none;endFill=0;" parent="1" source="kwlAMlTlPHPSavqxf0X7-6" target="kwlAMlTlPHPSavqxf0X7-5" edge="1">
          <mxGeometry relative="1" as="geometry">
            <Array as="points">
              <mxPoint x="210" y="230" />
              <mxPoint x="210" y="230" />
            </Array>
          </mxGeometry>
        </mxCell>
        <mxCell id="kwlAMlTlPHPSavqxf0X7-43" style="edgeStyle=orthogonalEdgeStyle;rounded=0;orthogonalLoop=1;jettySize=auto;html=1;entryX=0.5;entryY=0;entryDx=0;entryDy=0;endArrow=none;endFill=0;" parent="1" source="kwlAMlTlPHPSavqxf0X7-6" target="kwlAMlTlPHPSavqxf0X7-38" edge="1">
          <mxGeometry relative="1" as="geometry">
            <Array as="points">
              <mxPoint x="210" y="140" />
              <mxPoint x="570" y="140" />
              <mxPoint x="570" y="280" />
            </Array>
          </mxGeometry>
        </mxCell>
        <mxCell id="kwlAMlTlPHPSavqxf0X7-6" value="nombre" style="ellipse;whiteSpace=wrap;html=1;align=center;fontStyle=4;" parent="1" vertex="1">
          <mxGeometry x="160" y="90" width="100" height="40" as="geometry" />
        </mxCell>
        <mxCell id="kwlAMlTlPHPSavqxf0X7-19" value="" style="edgeStyle=orthogonalEdgeStyle;rounded=0;orthogonalLoop=1;jettySize=auto;html=1;endArrow=none;endFill=0;" parent="1" source="kwlAMlTlPHPSavqxf0X7-7" target="kwlAMlTlPHPSavqxf0X7-5" edge="1">
          <mxGeometry relative="1" as="geometry">
            <Array as="points">
              <mxPoint x="200" y="200" />
            </Array>
          </mxGeometry>
        </mxCell>
        <mxCell id="kwlAMlTlPHPSavqxf0X7-7" value="reputación" style="ellipse;whiteSpace=wrap;html=1;align=center;" parent="1" vertex="1">
          <mxGeometry x="70" y="180" width="100" height="40" as="geometry" />
        </mxCell>
        <mxCell id="kwlAMlTlPHPSavqxf0X7-20" value="" style="edgeStyle=orthogonalEdgeStyle;rounded=0;orthogonalLoop=1;jettySize=auto;html=1;endArrow=none;endFill=0;" parent="1" source="kwlAMlTlPHPSavqxf0X7-11" target="kwlAMlTlPHPSavqxf0X7-5" edge="1">
          <mxGeometry relative="1" as="geometry">
            <Array as="points">
              <mxPoint x="200" y="249" />
            </Array>
          </mxGeometry>
        </mxCell>
        <mxCell id="kwlAMlTlPHPSavqxf0X7-11" value="correo" style="ellipse;whiteSpace=wrap;html=1;align=center;" parent="1" vertex="1">
          <mxGeometry x="70" y="229" width="100" height="40" as="geometry" />
        </mxCell>
        <mxCell id="kwlAMlTlPHPSavqxf0X7-21" value="" style="edgeStyle=orthogonalEdgeStyle;rounded=0;orthogonalLoop=1;jettySize=auto;html=1;entryX=0;entryY=1;entryDx=0;entryDy=0;endArrow=none;endFill=0;exitX=1;exitY=0.5;exitDx=0;exitDy=0;" parent="1" target="kwlAMlTlPHPSavqxf0X7-5" edge="1" source="kwlAMlTlPHPSavqxf0X7-14">
          <mxGeometry relative="1" as="geometry">
            <mxPoint x="175" y="348" as="sourcePoint" />
            <mxPoint x="195" y="330" as="targetPoint" />
          </mxGeometry>
        </mxCell>
        <mxCell id="kwlAMlTlPHPSavqxf0X7-14" value="contraseña" style="ellipse;whiteSpace=wrap;html=1;align=center;" parent="1" vertex="1">
          <mxGeometry x="70" y="280" width="100" height="40" as="geometry" />
        </mxCell>
        <mxCell id="kwlAMlTlPHPSavqxf0X7-23" style="edgeStyle=orthogonalEdgeStyle;rounded=0;orthogonalLoop=1;jettySize=auto;html=1;entryX=0.25;entryY=1;entryDx=0;entryDy=0;endArrow=none;endFill=0;" parent="1" source="kwlAMlTlPHPSavqxf0X7-16" target="kwlAMlTlPHPSavqxf0X7-5" edge="1">
          <mxGeometry relative="1" as="geometry">
            <mxPoint x="260" y="330" as="targetPoint" />
            <Array as="points">
              <mxPoint x="200" y="350" />
              <mxPoint x="200" y="320" />
            </Array>
          </mxGeometry>
        </mxCell>
        <mxCell id="kwlAMlTlPHPSavqxf0X7-16" value="género" style="ellipse;whiteSpace=wrap;html=1;align=center;" parent="1" vertex="1">
          <mxGeometry x="70" y="330" width="100" height="40" as="geometry" />
        </mxCell>
        <mxCell id="kwlAMlTlPHPSavqxf0X7-22" style="edgeStyle=orthogonalEdgeStyle;rounded=0;orthogonalLoop=1;jettySize=auto;html=1;endArrow=none;endFill=0;" parent="1" source="kwlAMlTlPHPSavqxf0X7-17" edge="1">
          <mxGeometry relative="1" as="geometry">
            <mxPoint x="230" y="320" as="targetPoint" />
            <Array as="points">
              <mxPoint x="200" y="400" />
              <mxPoint x="200" y="320" />
            </Array>
          </mxGeometry>
        </mxCell>
        <mxCell id="kwlAMlTlPHPSavqxf0X7-17" value="foto" style="ellipse;whiteSpace=wrap;html=1;align=center;" parent="1" vertex="1">
          <mxGeometry x="70" y="378" width="100" height="40" as="geometry" />
        </mxCell>
        <mxCell id="kwlAMlTlPHPSavqxf0X7-34" style="edgeStyle=orthogonalEdgeStyle;rounded=0;orthogonalLoop=1;jettySize=auto;html=1;entryX=1;entryY=0.5;entryDx=0;entryDy=0;startArrow=classic;startFill=1;endArrow=none;endFill=0;" parent="1" target="kwlAMlTlPHPSavqxf0X7-32" edge="1">
          <mxGeometry relative="1" as="geometry">
            <mxPoint x="560" y="320" as="sourcePoint" />
            <Array as="points">
              <mxPoint x="560" y="440" />
            </Array>
          </mxGeometry>
        </mxCell>
        <mxCell id="kwlAMlTlPHPSavqxf0X7-27" style="edgeStyle=orthogonalEdgeStyle;rounded=0;orthogonalLoop=1;jettySize=auto;html=1;entryX=0;entryY=0.5;entryDx=0;entryDy=0;" parent="1" source="kwlAMlTlPHPSavqxf0X7-25" edge="1">
          <mxGeometry relative="1" as="geometry">
            <mxPoint x="510" y="300" as="targetPoint" />
          </mxGeometry>
        </mxCell>
        <mxCell id="kwlAMlTlPHPSavqxf0X7-28" style="edgeStyle=orthogonalEdgeStyle;rounded=0;orthogonalLoop=1;jettySize=auto;html=1;entryX=1;entryY=0.5;entryDx=0;entryDy=0;endArrow=none;endFill=0;" parent="1" source="kwlAMlTlPHPSavqxf0X7-25" target="kwlAMlTlPHPSavqxf0X7-5" edge="1">
          <mxGeometry relative="1" as="geometry" />
        </mxCell>
        <mxCell id="kwlAMlTlPHPSavqxf0X7-25" value="Posee" style="shape=rhombus;double=1;perimeter=rhombusPerimeter;whiteSpace=wrap;html=1;align=center;" parent="1" vertex="1">
          <mxGeometry x="350" y="270" width="120" height="60" as="geometry" />
        </mxCell>
        <mxCell id="kwlAMlTlPHPSavqxf0X7-29" value="1:N" style="text;strokeColor=none;fillColor=none;spacingLeft=4;spacingRight=4;overflow=hidden;rotatable=0;points=[[0,0.5],[1,0.5]];portConstraint=eastwest;fontSize=12;whiteSpace=wrap;html=1;" parent="1" vertex="1">
          <mxGeometry x="390" y="240" width="40" height="30" as="geometry" />
        </mxCell>
        <mxCell id="kwlAMlTlPHPSavqxf0X7-30" value="0,1" style="text;strokeColor=none;fillColor=none;spacingLeft=4;spacingRight=4;overflow=hidden;rotatable=0;points=[[0,0.5],[1,0.5]];portConstraint=eastwest;fontSize=12;whiteSpace=wrap;html=1;" parent="1" vertex="1">
          <mxGeometry x="290" y="300" width="40" height="30" as="geometry" />
        </mxCell>
        <mxCell id="kwlAMlTlPHPSavqxf0X7-31" value="1:N" style="text;strokeColor=none;fillColor=none;spacingLeft=4;spacingRight=4;overflow=hidden;rotatable=0;points=[[0,0.5],[1,0.5]];portConstraint=eastwest;fontSize=12;whiteSpace=wrap;html=1;" parent="1" vertex="1">
          <mxGeometry x="470" y="310" width="40" height="30" as="geometry" />
        </mxCell>
        <mxCell id="kwlAMlTlPHPSavqxf0X7-32" value="Ver" style="shape=rhombus;double=1;perimeter=rhombusPerimeter;whiteSpace=wrap;html=1;align=center;" parent="1" vertex="1">
          <mxGeometry x="350" y="410" width="120" height="60" as="geometry" />
        </mxCell>
        <mxCell id="kwlAMlTlPHPSavqxf0X7-35" value="1:N" style="text;strokeColor=none;fillColor=none;spacingLeft=4;spacingRight=4;overflow=hidden;rotatable=0;points=[[0,0.5],[1,0.5]];portConstraint=eastwest;fontSize=12;whiteSpace=wrap;html=1;" parent="1" vertex="1">
          <mxGeometry x="560" y="319" width="40" height="30" as="geometry" />
        </mxCell>
        <mxCell id="kwlAMlTlPHPSavqxf0X7-36" value="1, n&lt;br&gt;" style="text;strokeColor=none;fillColor=none;spacingLeft=4;spacingRight=4;overflow=hidden;rotatable=0;points=[[0,0.5],[1,0.5]];portConstraint=eastwest;fontSize=12;whiteSpace=wrap;html=1;" parent="1" vertex="1">
          <mxGeometry x="260" y="328" width="40" height="30" as="geometry" />
        </mxCell>
        <mxCell id="kwlAMlTlPHPSavqxf0X7-37" value="N:M" style="text;strokeColor=none;fillColor=none;spacingLeft=4;spacingRight=4;overflow=hidden;rotatable=0;points=[[0,0.5],[1,0.5]];portConstraint=eastwest;fontSize=12;whiteSpace=wrap;html=1;" parent="1" vertex="1">
          <mxGeometry x="390" y="384" width="40" height="30" as="geometry" />
        </mxCell>
        <mxCell id="kwlAMlTlPHPSavqxf0X7-38" value="Repositorio" style="shape=ext;margin=3;double=1;whiteSpace=wrap;html=1;align=center;" parent="1" vertex="1">
          <mxGeometry x="510" y="280" width="100" height="40" as="geometry" />
        </mxCell>
        <mxCell id="kwlAMlTlPHPSavqxf0X7-40" style="edgeStyle=orthogonalEdgeStyle;rounded=0;orthogonalLoop=1;jettySize=auto;html=1;entryX=0.5;entryY=0;entryDx=0;entryDy=0;endArrow=none;endFill=0;" parent="1" source="kwlAMlTlPHPSavqxf0X7-39" target="kwlAMlTlPHPSavqxf0X7-38" edge="1">
          <mxGeometry relative="1" as="geometry" />
        </mxCell>
        <mxCell id="kwlAMlTlPHPSavqxf0X7-39" value="nombre Repo" style="ellipse;whiteSpace=wrap;html=1;align=center;fontStyle=4;" parent="1" vertex="1">
          <mxGeometry x="510" y="90" width="100" height="40" as="geometry" />
        </mxCell>
        <mxCell id="kwlAMlTlPHPSavqxf0X7-42" style="edgeStyle=orthogonalEdgeStyle;rounded=0;orthogonalLoop=1;jettySize=auto;html=1;entryX=0.5;entryY=1;entryDx=0;entryDy=0;endArrow=none;endFill=0;" parent="1" edge="1">
          <mxGeometry relative="1" as="geometry">
            <mxPoint x="130" y="449.0000000000001" as="sourcePoint" />
            <mxPoint x="200" y="319" as="targetPoint" />
          </mxGeometry>
        </mxCell>
        <mxCell id="kwlAMlTlPHPSavqxf0X7-41" value="Admin" style="ellipse;whiteSpace=wrap;html=1;align=center;" parent="1" vertex="1">
          <mxGeometry x="70" y="430" width="100" height="40" as="geometry" />
        </mxCell>
        <mxCell id="kwlAMlTlPHPSavqxf0X7-60" style="edgeStyle=orthogonalEdgeStyle;rounded=0;orthogonalLoop=1;jettySize=auto;html=1;endArrow=classic;endFill=1;exitX=1;exitY=0.5;exitDx=0;exitDy=0;entryX=0;entryY=0.5;entryDx=0;entryDy=0;" parent="1" source="kwlAMlTlPHPSavqxf0X7-62" target="HHF1zuxT_qCgRtnAyrzc-16" edge="1">
          <mxGeometry relative="1" as="geometry">
            <Array as="points" />
            <mxPoint x="890.1652892561983" y="399.2479338842977" as="sourcePoint" />
            <mxPoint x="920" y="300" as="targetPoint" />
          </mxGeometry>
        </mxCell>
        <mxCell id="0pt8nTZRLrFO9MN8cXnW-5" value="" style="edgeStyle=orthogonalEdgeStyle;rounded=0;orthogonalLoop=1;jettySize=auto;html=1;endArrow=none;endFill=0;startArrow=classicThin;startFill=1;entryX=0;entryY=0.5;entryDx=0;entryDy=0;exitX=1;exitY=0.5;exitDx=0;exitDy=0;" parent="1" source="HHF1zuxT_qCgRtnAyrzc-16" target="0pt8nTZRLrFO9MN8cXnW-3" edge="1">
          <mxGeometry relative="1" as="geometry">
            <Array as="points">
              <mxPoint x="1310" y="300" />
            </Array>
          </mxGeometry>
        </mxCell>
        <mxCell id="kwlAMlTlPHPSavqxf0X7-52" value="Fichero" style="whiteSpace=wrap;html=1;align=center;" parent="1" vertex="1">
          <mxGeometry x="760" y="480" width="100" height="40" as="geometry" />
        </mxCell>
        <mxCell id="kwlAMlTlPHPSavqxf0X7-54" value="Carpeta" style="whiteSpace=wrap;html=1;align=center;" parent="1" vertex="1">
          <mxGeometry x="1130" y="480" width="100" height="40" as="geometry" />
        </mxCell>
        <mxCell id="kwlAMlTlPHPSavqxf0X7-64" style="edgeStyle=orthogonalEdgeStyle;rounded=0;orthogonalLoop=1;jettySize=auto;html=1;entryX=1;entryY=0.5;entryDx=0;entryDy=0;" parent="1" source="kwlAMlTlPHPSavqxf0X7-62" target="kwlAMlTlPHPSavqxf0X7-38" edge="1">
          <mxGeometry relative="1" as="geometry" />
        </mxCell>
        <mxCell id="kwlAMlTlPHPSavqxf0X7-62" value="Incluye" style="shape=rhombus;double=1;perimeter=rhombusPerimeter;whiteSpace=wrap;html=1;align=center;" parent="1" vertex="1">
          <mxGeometry x="670" y="270" width="120" height="60" as="geometry" />
        </mxCell>
        <mxCell id="kwlAMlTlPHPSavqxf0X7-65" value="0:N" style="text;strokeColor=none;fillColor=none;spacingLeft=4;spacingRight=4;overflow=hidden;rotatable=0;points=[[0,0.5],[1,0.5]];portConstraint=eastwest;fontSize=12;whiteSpace=wrap;html=1;" parent="1" vertex="1">
          <mxGeometry x="860" y="270" width="40" height="30" as="geometry" />
        </mxCell>
        <mxCell id="kwlAMlTlPHPSavqxf0X7-66" value="1:1" style="text;strokeColor=none;fillColor=none;spacingLeft=4;spacingRight=4;overflow=hidden;rotatable=0;points=[[0,0.5],[1,0.5]];portConstraint=eastwest;fontSize=12;whiteSpace=wrap;html=1;" parent="1" vertex="1">
          <mxGeometry x="610" y="269" width="40" height="30" as="geometry" />
        </mxCell>
        <mxCell id="kwlAMlTlPHPSavqxf0X7-67" value="1:N" style="text;strokeColor=none;fillColor=none;spacingLeft=4;spacingRight=4;overflow=hidden;rotatable=0;points=[[0,0.5],[1,0.5]];portConstraint=eastwest;fontSize=12;whiteSpace=wrap;html=1;" parent="1" vertex="1">
          <mxGeometry x="710" y="240" width="40" height="30" as="geometry" />
        </mxCell>
        <mxCell id="HHF1zuxT_qCgRtnAyrzc-7" style="edgeStyle=orthogonalEdgeStyle;rounded=0;orthogonalLoop=1;jettySize=auto;html=1;entryX=0.5;entryY=1;entryDx=0;entryDy=0;endArrow=none;endFill=0;exitX=0.5;exitY=0;exitDx=0;exitDy=0;" parent="1" source="kwlAMlTlPHPSavqxf0X7-68" target="HHF1zuxT_qCgRtnAyrzc-6" edge="1">
          <mxGeometry relative="1" as="geometry">
            <mxPoint x="560" y="585" as="sourcePoint" />
            <mxPoint x="640" y="504.9999999999999" as="targetPoint" />
            <Array as="points">
              <mxPoint x="550" y="600" />
              <mxPoint x="610" y="600" />
            </Array>
          </mxGeometry>
        </mxCell>
        <mxCell id="HHF1zuxT_qCgRtnAyrzc-15" style="edgeStyle=orthogonalEdgeStyle;rounded=0;orthogonalLoop=1;jettySize=auto;html=1;exitX=0.5;exitY=0;exitDx=0;exitDy=0;entryX=0.5;entryY=1;entryDx=0;entryDy=0;endArrow=none;endFill=0;" parent="1" source="kwlAMlTlPHPSavqxf0X7-68" target="HHF1zuxT_qCgRtnAyrzc-14" edge="1">
          <mxGeometry relative="1" as="geometry" />
        </mxCell>
        <mxCell id="kwlAMlTlPHPSavqxf0X7-68" value="Partida" style="rounded=1;arcSize=10;whiteSpace=wrap;html=1;align=center;" parent="1" vertex="1">
          <mxGeometry x="500" y="620" width="100" height="40" as="geometry" />
        </mxCell>
        <mxCell id="kwlAMlTlPHPSavqxf0X7-72" style="edgeStyle=orthogonalEdgeStyle;rounded=0;orthogonalLoop=1;jettySize=auto;html=1;entryX=0;entryY=0.5;entryDx=0;entryDy=0;endArrow=classic;endFill=1;" parent="1" source="kwlAMlTlPHPSavqxf0X7-70" target="kwlAMlTlPHPSavqxf0X7-68" edge="1">
          <mxGeometry relative="1" as="geometry" />
        </mxCell>
        <mxCell id="kwlAMlTlPHPSavqxf0X7-70" value="Juega" style="shape=rhombus;double=1;perimeter=rhombusPerimeter;whiteSpace=wrap;html=1;align=center;" parent="1" vertex="1">
          <mxGeometry x="310" y="610" width="120" height="60" as="geometry" />
        </mxCell>
        <mxCell id="kwlAMlTlPHPSavqxf0X7-73" style="edgeStyle=orthogonalEdgeStyle;rounded=0;orthogonalLoop=1;jettySize=auto;html=1;entryX=0.59;entryY=0.95;entryDx=0;entryDy=0;entryPerimeter=0;endArrow=none;endFill=0;" parent="1" source="kwlAMlTlPHPSavqxf0X7-70" target="kwlAMlTlPHPSavqxf0X7-5" edge="1">
          <mxGeometry relative="1" as="geometry" />
        </mxCell>
        <mxCell id="kwlAMlTlPHPSavqxf0X7-74" value="1:N" style="text;strokeColor=none;fillColor=none;spacingLeft=4;spacingRight=4;overflow=hidden;rotatable=0;points=[[0,0.5],[1,0.5]];portConstraint=eastwest;fontSize=12;whiteSpace=wrap;html=1;" parent="1" vertex="1">
          <mxGeometry x="460" y="610" width="40" height="30" as="geometry" />
        </mxCell>
        <mxCell id="kwlAMlTlPHPSavqxf0X7-75" value="1:1" style="text;strokeColor=none;fillColor=none;spacingLeft=4;spacingRight=4;overflow=hidden;rotatable=0;points=[[0,0.5],[1,0.5]];portConstraint=eastwest;fontSize=12;whiteSpace=wrap;html=1;" parent="1" vertex="1">
          <mxGeometry x="250" y="610" width="40" height="30" as="geometry" />
        </mxCell>
        <mxCell id="kwlAMlTlPHPSavqxf0X7-76" value="1:N" style="text;strokeColor=none;fillColor=none;spacingLeft=4;spacingRight=4;overflow=hidden;rotatable=0;points=[[0,0.5],[1,0.5]];portConstraint=eastwest;fontSize=12;whiteSpace=wrap;html=1;" parent="1" vertex="1">
          <mxGeometry x="360" y="580" width="40" height="30" as="geometry" />
        </mxCell>
        <mxCell id="kwlAMlTlPHPSavqxf0X7-81" style="edgeStyle=orthogonalEdgeStyle;rounded=0;orthogonalLoop=1;jettySize=auto;html=1;entryX=1;entryY=0.5;entryDx=0;entryDy=0;" parent="1" source="kwlAMlTlPHPSavqxf0X7-79" target="kwlAMlTlPHPSavqxf0X7-68" edge="1">
          <mxGeometry relative="1" as="geometry" />
        </mxCell>
        <mxCell id="kwlAMlTlPHPSavqxf0X7-82" style="edgeStyle=orthogonalEdgeStyle;rounded=0;orthogonalLoop=1;jettySize=auto;html=1;entryX=0.5;entryY=0;entryDx=0;entryDy=0;endArrow=none;endFill=0;" parent="1" source="kwlAMlTlPHPSavqxf0X7-79" target="kwlAMlTlPHPSavqxf0X7-80" edge="1">
          <mxGeometry relative="1" as="geometry" />
        </mxCell>
        <mxCell id="kwlAMlTlPHPSavqxf0X7-79" value="Contiene" style="shape=rhombus;double=1;perimeter=rhombusPerimeter;whiteSpace=wrap;html=1;align=center;" parent="1" vertex="1">
          <mxGeometry x="650" y="610" width="120" height="60" as="geometry" />
        </mxCell>
        <mxCell id="HHF1zuxT_qCgRtnAyrzc-9" style="edgeStyle=orthogonalEdgeStyle;rounded=0;orthogonalLoop=1;jettySize=auto;html=1;entryX=0;entryY=0.5;entryDx=0;entryDy=0;endArrow=none;endFill=0;" parent="1" source="kwlAMlTlPHPSavqxf0X7-80" target="HHF1zuxT_qCgRtnAyrzc-8" edge="1">
          <mxGeometry relative="1" as="geometry">
            <Array as="points">
              <mxPoint x="750" y="700" />
            </Array>
          </mxGeometry>
        </mxCell>
        <mxCell id="HHF1zuxT_qCgRtnAyrzc-11" style="edgeStyle=orthogonalEdgeStyle;rounded=0;orthogonalLoop=1;jettySize=auto;html=1;entryX=0;entryY=0.5;entryDx=0;entryDy=0;endArrow=none;endFill=0;" parent="1" source="kwlAMlTlPHPSavqxf0X7-80" target="HHF1zuxT_qCgRtnAyrzc-10" edge="1">
          <mxGeometry relative="1" as="geometry" />
        </mxCell>
        <mxCell id="HHF1zuxT_qCgRtnAyrzc-13" style="edgeStyle=orthogonalEdgeStyle;rounded=0;orthogonalLoop=1;jettySize=auto;html=1;exitX=1;exitY=1;exitDx=0;exitDy=0;entryX=0;entryY=0.5;entryDx=0;entryDy=0;endArrow=none;endFill=0;" parent="1" source="kwlAMlTlPHPSavqxf0X7-80" target="HHF1zuxT_qCgRtnAyrzc-12" edge="1">
          <mxGeometry relative="1" as="geometry">
            <Array as="points">
              <mxPoint x="760" y="750" />
              <mxPoint x="805" y="750" />
              <mxPoint x="805" y="800" />
            </Array>
          </mxGeometry>
        </mxCell>
        <mxCell id="kwlAMlTlPHPSavqxf0X7-80" value="Palabra" style="rounded=1;arcSize=10;whiteSpace=wrap;html=1;align=center;" parent="1" vertex="1">
          <mxGeometry x="660" y="730" width="100" height="40" as="geometry" />
        </mxCell>
        <mxCell id="kwlAMlTlPHPSavqxf0X7-83" value="1:1" style="text;strokeColor=none;fillColor=none;spacingLeft=4;spacingRight=4;overflow=hidden;rotatable=0;points=[[0,0.5],[1,0.5]];portConstraint=eastwest;fontSize=12;whiteSpace=wrap;html=1;" parent="1" vertex="1">
          <mxGeometry x="720" y="700" width="40" height="30" as="geometry" />
        </mxCell>
        <mxCell id="kwlAMlTlPHPSavqxf0X7-84" value="1:N" style="text;strokeColor=none;fillColor=none;spacingLeft=4;spacingRight=4;overflow=hidden;rotatable=0;points=[[0,0.5],[1,0.5]];portConstraint=eastwest;fontSize=12;whiteSpace=wrap;html=1;" parent="1" vertex="1">
          <mxGeometry x="600" y="610" width="40" height="30" as="geometry" />
        </mxCell>
        <mxCell id="kwlAMlTlPHPSavqxf0X7-85" value="1:N" style="text;strokeColor=none;fillColor=none;spacingLeft=4;spacingRight=4;overflow=hidden;rotatable=0;points=[[0,0.5],[1,0.5]];portConstraint=eastwest;fontSize=12;whiteSpace=wrap;html=1;" parent="1" vertex="1">
          <mxGeometry x="700" y="585" width="40" height="30" as="geometry" />
        </mxCell>
        <mxCell id="0pt8nTZRLrFO9MN8cXnW-4" value="" style="edgeStyle=orthogonalEdgeStyle;rounded=0;orthogonalLoop=1;jettySize=auto;html=1;endArrow=none;endFill=0;" parent="1" source="0pt8nTZRLrFO9MN8cXnW-3" target="kwlAMlTlPHPSavqxf0X7-54" edge="1">
          <mxGeometry relative="1" as="geometry">
            <Array as="points">
              <mxPoint x="1350" y="500" />
            </Array>
          </mxGeometry>
        </mxCell>
        <mxCell id="0pt8nTZRLrFO9MN8cXnW-3" value="contiene" style="rhombus;whiteSpace=wrap;html=1;" parent="1" vertex="1">
          <mxGeometry x="1310" y="260" width="80" height="80" as="geometry" />
        </mxCell>
        <mxCell id="0pt8nTZRLrFO9MN8cXnW-6" value="0, N" style="text;html=1;strokeColor=none;fillColor=none;align=center;verticalAlign=middle;whiteSpace=wrap;rounded=0;" parent="1" vertex="1">
          <mxGeometry x="1211" y="450" width="60" height="30" as="geometry" />
        </mxCell>
        <mxCell id="0pt8nTZRLrFO9MN8cXnW-7" value="0, 1" style="text;html=1;strokeColor=none;fillColor=none;align=center;verticalAlign=middle;whiteSpace=wrap;rounded=0;" parent="1" vertex="1">
          <mxGeometry x="1040" y="310" width="60" height="30" as="geometry" />
        </mxCell>
        <mxCell id="HHF1zuxT_qCgRtnAyrzc-3" style="edgeStyle=orthogonalEdgeStyle;rounded=0;orthogonalLoop=1;jettySize=auto;html=1;entryX=0;entryY=0.5;entryDx=0;entryDy=0;exitX=0.5;exitY=1;exitDx=0;exitDy=0;" parent="1" source="HHF1zuxT_qCgRtnAyrzc-16" target="HHF1zuxT_qCgRtnAyrzc-2" edge="1">
          <mxGeometry relative="1" as="geometry">
            <mxPoint x="980" y="330" as="sourcePoint" />
          </mxGeometry>
        </mxCell>
        <mxCell id="HHF1zuxT_qCgRtnAyrzc-4" style="edgeStyle=orthogonalEdgeStyle;rounded=0;orthogonalLoop=1;jettySize=auto;html=1;entryX=0.5;entryY=0;entryDx=0;entryDy=0;endArrow=none;endFill=0;" parent="1" source="HHF1zuxT_qCgRtnAyrzc-2" target="kwlAMlTlPHPSavqxf0X7-52" edge="1">
          <mxGeometry relative="1" as="geometry" />
        </mxCell>
        <mxCell id="HHF1zuxT_qCgRtnAyrzc-5" style="edgeStyle=orthogonalEdgeStyle;rounded=0;orthogonalLoop=1;jettySize=auto;html=1;entryX=0.5;entryY=0;entryDx=0;entryDy=0;endArrow=none;endFill=0;" parent="1" source="HHF1zuxT_qCgRtnAyrzc-2" target="kwlAMlTlPHPSavqxf0X7-54" edge="1">
          <mxGeometry relative="1" as="geometry" />
        </mxCell>
        <mxCell id="HHF1zuxT_qCgRtnAyrzc-2" value="" style="triangle;whiteSpace=wrap;html=1;rotation=90;" parent="1" vertex="1">
          <mxGeometry x="950" y="358" width="60" height="80" as="geometry" />
        </mxCell>
        <mxCell id="HHF1zuxT_qCgRtnAyrzc-6" value="codPartida" style="ellipse;whiteSpace=wrap;html=1;align=center;fontStyle=4;" parent="1" vertex="1">
          <mxGeometry x="560" y="540" width="100" height="40" as="geometry" />
        </mxCell>
        <mxCell id="HHF1zuxT_qCgRtnAyrzc-8" value="codPalabra" style="ellipse;whiteSpace=wrap;html=1;align=center;fontStyle=4;" parent="1" vertex="1">
          <mxGeometry x="820" y="680" width="100" height="40" as="geometry" />
        </mxCell>
        <mxCell id="HHF1zuxT_qCgRtnAyrzc-10" value="vecesAcertada" style="ellipse;whiteSpace=wrap;html=1;align=center;" parent="1" vertex="1">
          <mxGeometry x="820" y="730" width="100" height="40" as="geometry" />
        </mxCell>
        <mxCell id="HHF1zuxT_qCgRtnAyrzc-12" value="palabra" style="ellipse;whiteSpace=wrap;html=1;align=center;" parent="1" vertex="1">
          <mxGeometry x="820" y="780" width="100" height="40" as="geometry" />
        </mxCell>
        <mxCell id="HHF1zuxT_qCgRtnAyrzc-14" value="fecha Juego" style="ellipse;whiteSpace=wrap;html=1;align=center;" parent="1" vertex="1">
          <mxGeometry x="450" y="540" width="100" height="40" as="geometry" />
        </mxCell>
        <mxCell id="HHF1zuxT_qCgRtnAyrzc-16" value="Archivo" style="shape=ext;margin=3;double=1;whiteSpace=wrap;html=1;align=center;" parent="1" vertex="1">
          <mxGeometry x="930" y="280" width="100" height="40" as="geometry" />
        </mxCell>
        <mxCell id="HHF1zuxT_qCgRtnAyrzc-18" style="edgeStyle=orthogonalEdgeStyle;rounded=0;orthogonalLoop=1;jettySize=auto;html=1;entryX=0.5;entryY=0;entryDx=0;entryDy=0;endArrow=none;endFill=0;exitX=0.5;exitY=1;exitDx=0;exitDy=0;" parent="1" source="HHF1zuxT_qCgRtnAyrzc-17" target="HHF1zuxT_qCgRtnAyrzc-16" edge="1">
          <mxGeometry relative="1" as="geometry">
            <Array as="points">
              <mxPoint x="1090" y="240" />
              <mxPoint x="1030" y="240" />
              <mxPoint x="1030" y="280" />
            </Array>
          </mxGeometry>
        </mxCell>
        <mxCell id="HHF1zuxT_qCgRtnAyrzc-17" value="fechaCreacion" style="ellipse;whiteSpace=wrap;html=1;align=center;" parent="1" vertex="1">
          <mxGeometry x="1040" y="120" width="100" height="40" as="geometry" />
        </mxCell>
        <mxCell id="HHF1zuxT_qCgRtnAyrzc-20" style="edgeStyle=orthogonalEdgeStyle;rounded=0;orthogonalLoop=1;jettySize=auto;html=1;entryX=0.25;entryY=0;entryDx=0;entryDy=0;endArrow=none;endFill=0;exitX=0.5;exitY=1;exitDx=0;exitDy=0;" parent="1" source="HHF1zuxT_qCgRtnAyrzc-19" edge="1">
          <mxGeometry relative="1" as="geometry">
            <Array as="points">
              <mxPoint x="980" y="280" />
            </Array>
            <mxPoint x="985" y="169.5959179422655" as="sourcePoint" />
            <mxPoint x="930" y="280" as="targetPoint" />
          </mxGeometry>
        </mxCell>
        <mxCell id="HHF1zuxT_qCgRtnAyrzc-19" value="Ruta" style="ellipse;whiteSpace=wrap;html=1;align=center;fontStyle=4;" parent="1" vertex="1">
          <mxGeometry x="930" y="120" width="100" height="40" as="geometry" />
        </mxCell>
        <mxCell id="HHF1zuxT_qCgRtnAyrzc-22" value="" style="edgeStyle=orthogonalEdgeStyle;rounded=0;orthogonalLoop=1;jettySize=auto;html=1;entryX=0.25;entryY=0;entryDx=0;entryDy=0;endArrow=none;endFill=0;" parent="1" source="HHF1zuxT_qCgRtnAyrzc-21" target="HHF1zuxT_qCgRtnAyrzc-16" edge="1">
          <mxGeometry relative="1" as="geometry">
            <Array as="points">
              <mxPoint x="870" y="240" />
              <mxPoint x="930" y="240" />
              <mxPoint x="930" y="280" />
            </Array>
          </mxGeometry>
        </mxCell>
        <mxCell id="HHF1zuxT_qCgRtnAyrzc-21" value="Nombre" style="ellipse;whiteSpace=wrap;html=1;align=center;fontStyle=4;" parent="1" vertex="1">
          <mxGeometry x="820" y="120" width="100" height="40" as="geometry" />
        </mxCell>
        <mxCell id="Hqbgm0L_hQr76SOQx8Li-1" value="1:N" style="text;strokeColor=none;fillColor=none;spacingLeft=4;spacingRight=4;overflow=hidden;rotatable=0;points=[[0,0.5],[1,0.5]];portConstraint=eastwest;fontSize=12;whiteSpace=wrap;html=1;" vertex="1" parent="1">
          <mxGeometry x="1330" y="229" width="40" height="30" as="geometry" />
        </mxCell>
        <mxCell id="Hqbgm0L_hQr76SOQx8Li-3" style="edgeStyle=orthogonalEdgeStyle;rounded=0;orthogonalLoop=1;jettySize=auto;html=1;endArrow=none;endFill=0;" edge="1" parent="1" source="Hqbgm0L_hQr76SOQx8Li-2">
          <mxGeometry relative="1" as="geometry">
            <mxPoint x="1030" y="280" as="targetPoint" />
            <Array as="points">
              <mxPoint x="1210" y="240" />
              <mxPoint x="1030" y="240" />
            </Array>
          </mxGeometry>
        </mxCell>
        <mxCell id="Hqbgm0L_hQr76SOQx8Li-2" value="carpeta" style="ellipse;whiteSpace=wrap;html=1;align=center;" vertex="1" parent="1">
          <mxGeometry x="1160" y="120" width="100" height="40" as="geometry" />
        </mxCell>
        <mxCell id="Hqbgm0L_hQr76SOQx8Li-5" value="" style="endArrow=none;html=1;rounded=0;" edge="1" parent="1">
          <mxGeometry width="50" height="50" relative="1" as="geometry">
            <mxPoint x="860" y="353" as="sourcePoint" />
            <mxPoint x="1110" y="349" as="targetPoint" />
            <Array as="points">
              <mxPoint x="900" y="440" />
              <mxPoint x="1000" y="483" />
              <mxPoint x="1060" y="440" />
            </Array>
          </mxGeometry>
        </mxCell>
        <mxCell id="Hqbgm0L_hQr76SOQx8Li-7" style="edgeStyle=orthogonalEdgeStyle;rounded=0;orthogonalLoop=1;jettySize=auto;html=1;entryX=0.75;entryY=0;entryDx=0;entryDy=0;" edge="1" parent="1" source="Hqbgm0L_hQr76SOQx8Li-6" target="kwlAMlTlPHPSavqxf0X7-5">
          <mxGeometry relative="1" as="geometry" />
        </mxCell>
        <mxCell id="Hqbgm0L_hQr76SOQx8Li-8" style="edgeStyle=orthogonalEdgeStyle;rounded=0;orthogonalLoop=1;jettySize=auto;html=1;" edge="1" parent="1" source="Hqbgm0L_hQr76SOQx8Li-6">
          <mxGeometry relative="1" as="geometry">
            <mxPoint x="220" y="280" as="targetPoint" />
            <Array as="points">
              <mxPoint x="220" y="210" />
              <mxPoint x="220" y="280" />
            </Array>
          </mxGeometry>
        </mxCell>
        <mxCell id="Hqbgm0L_hQr76SOQx8Li-6" value="solicita acceso" style="shape=rhombus;double=1;perimeter=rhombusPerimeter;whiteSpace=wrap;html=1;align=center;" vertex="1" parent="1">
          <mxGeometry x="240" y="180" width="120" height="60" as="geometry" />
        </mxCell>
        <mxCell id="Hqbgm0L_hQr76SOQx8Li-9" value="N:M" style="text;strokeColor=none;fillColor=none;spacingLeft=4;spacingRight=4;overflow=hidden;rotatable=0;points=[[0,0.5],[1,0.5]];portConstraint=eastwest;fontSize=12;whiteSpace=wrap;html=1;" vertex="1" parent="1">
          <mxGeometry x="290" y="150" width="40" height="30" as="geometry" />
        </mxCell>
        <mxCell id="Hqbgm0L_hQr76SOQx8Li-10" value="0, n" style="text;strokeColor=none;fillColor=none;spacingLeft=4;spacingRight=4;overflow=hidden;rotatable=0;points=[[0,0.5],[1,0.5]];portConstraint=eastwest;fontSize=12;whiteSpace=wrap;html=1;" vertex="1" parent="1">
          <mxGeometry x="220" y="250" width="40" height="30" as="geometry" />
        </mxCell>
        <mxCell id="Hqbgm0L_hQr76SOQx8Li-12" value="0, n" style="text;strokeColor=none;fillColor=none;spacingLeft=4;spacingRight=4;overflow=hidden;rotatable=0;points=[[0,0.5],[1,0.5]];portConstraint=eastwest;fontSize=12;whiteSpace=wrap;html=1;" vertex="1" parent="1">
          <mxGeometry x="270" y="259" width="40" height="30" as="geometry" />
        </mxCell>
      </root>
    </mxGraphModel>
  </diagram>
</mxfile>
